<?xml version="1.0" standalone="no"?>
<!DOCTYPE svg PUBLIC "-//W3C//DTD SVG 20010904//EN"
 "http://www.w3.org/TR/2001/REC-SVG-20010904/DTD/svg10.dtd">
<svg version="1.0" xmlns="http://www.w3.org/2000/svg"
 width="261.000000pt" height="261.000000pt" viewBox="0 0 261.000000 261.000000"
 preserveAspectRatio="xMidYMid meet">
<metadata>
Created by potrace 1.11, written by Peter Selinger 2001-2013
</metadata>
<g transform="translate(0.000000,261.000000) scale(0.100000,-0.100000)"
fill="#000000" stroke="none">
<path d="M290 2583 c-102 -26 -197 -100 -241 -185 -46 -90 -47 -107 -43 -1127
l3 -963 29 -62 c34 -69 61 -101 127 -146 130 -90 270 -100 405 -30 74 39 215
164 475 423 l270 269 328 -331 c180 -183 348 -347 372 -366 91 -69 219 -82
327 -33 98 45 211 178 240 283 12 41 14 228 13 1055 l-1 1005 -26 42 c-110
170 -353 234 -535 140 -17 -9 -184 -170 -369 -357 -186 -187 -342 -340 -348
-340 -6 0 -43 31 -81 68 -70 67 -275 258 -390 362 -33 30 -100 93 -148 140
-48 47 -109 97 -135 113 -86 50 -180 64 -272 40z"/>
</g>
</svg>
